<?xml version="1.0" encoding="UTF-8" standalone="no"?>
<svg
   width="256"
   height="256"
   fill="none"
   viewBox="0 0 256 256"
   version="1.1"
   id="svg4"
   sodipodi:docname="React-Dark.svg"
   inkscape:export-filename="Kubernetes-Dark.svg"
   inkscape:export-xdpi="96"
   inkscape:export-ydpi="96"
   xml:space="preserve"
   xmlns:inkscape="http://www.inkscape.org/namespaces/inkscape"
   xmlns:sodipodi="http://sodipodi.sourceforge.net/DTD/sodipodi-0.dtd"
   xmlns="http://www.w3.org/2000/svg"
   xmlns:svg="http://www.w3.org/2000/svg"><defs
     id="defs4"><clipPath
       id="clip0_158_82"><rect
         width="200"
         height="154.92999"
         fill="#ffffff"
         transform="translate(28,51)"
         id="rect2-9"
         x="0"
         y="0" /></clipPath></defs><sodipodi:namedview
     id="namedview4"
     pagecolor="#ffffff"
     bordercolor="#000000"
     borderopacity="0.25"
     inkscape:showpageshadow="2"
     inkscape:pageopacity="0.0"
     inkscape:pagecheckerboard="0"
     inkscape:deskcolor="#d1d1d1"
     inkscape:export-bgcolor="#ffffff00" /><g
     fill="#000e9c"
     id="g2"
     transform="matrix(1.8965339,0,0,1.8965339,-10.666113,35.90565)"><g
       style="fill:none"
       id="g9"
       transform="matrix(0.52727768,0,0,0.52727768,5.9503923,-18.149175)"><rect
         width="256"
         height="256"
         fill="#5865f2"
         rx="60"
         id="rect1"
         x="0"
         y="0"
         style="fill:#242938;fill-opacity:1" /><g
         clip-path="url(#clip0_158_82)"
         id="g1"><path
           fill="#ffffff"
           d="m 197.308,64.7966 c -12.747,-5.849 -26.416,-10.1583 -40.709,-12.6265 -0.26,-0.0476 -0.52,0.0714 -0.654,0.3095 -1.758,3.1268 -3.706,7.206 -5.069,10.4122 -15.373,-2.3014 -30.666,-2.3014 -45.723,0 -1.364,-3.2775 -3.382,-7.2854 -5.148,-10.4122 -0.1343,-0.2301 -0.3943,-0.3491 -0.6546,-0.3095 -14.2845,2.4603 -27.9541,6.7696 -40.7093,12.6265 -0.1104,0.0476 -0.205,0.127 -0.2679,0.2301 -25.9283,38.7363 -33.0311,76.5203 -29.5467,113.8363 0.0158,0.183 0.1182,0.357 0.2602,0.468 17.1067,12.563 33.6775,20.19 49.9406,25.245 0.2603,0.079 0.5361,-0.016 0.7017,-0.23 3.8471,-5.254 7.2764,-10.793 10.2166,-16.618 0.1736,-0.342 0.0079,-0.746 -0.3467,-0.881 -5.4395,-2.064 -10.6189,-4.579 -15.6012,-7.436 -0.394,-0.23 -0.4256,-0.794 -0.063,-1.064 1.0484,-0.786 2.0971,-1.603 3.0983,-2.428 0.1811,-0.151 0.4335,-0.183 0.6464,-0.088 32.7316,14.944 68.1666,14.944 100.5116,0 0.213,-0.103 0.466,-0.071 0.655,0.08 1.001,0.825 2.049,1.65 3.106,2.436 0.362,0.27 0.339,0.834 -0.055,1.064 -4.983,2.912 -10.162,5.372 -15.609,7.428 -0.355,0.135 -0.513,0.547 -0.339,0.889 3.003,5.817 6.432,11.356 10.208,16.61 0.158,0.222 0.442,0.317 0.702,0.238 16.342,-5.055 32.913,-12.682 50.02,-25.245 0.149,-0.111 0.244,-0.278 0.26,-0.46 4.17,-43.141 -6.985,-80.6156 -29.571,-113.8364 -0.055,-0.111 -0.149,-0.1904 -0.26,-0.238 z M 94.8335,156.142 c -9.8543,0 -17.9741,-9.047 -17.9741,-20.158 0,-11.111 7.9623,-20.158 17.9741,-20.158 10.0905,0 18.1315,9.127 17.9735,20.158 0,11.111 -7.962,20.158 -17.9735,20.158 z m 66.4565,0 c -9.855,0 -17.974,-9.047 -17.974,-20.158 0,-11.111 7.962,-20.158 17.974,-20.158 10.09,0 18.131,9.127 17.974,20.158 0,11.111 -7.884,20.158 -17.974,20.158 z"
           id="path1" /></g></g></g></svg>
