<?xml version="1.0" encoding="UTF-8" standalone="no"?>
<svg
   width="256"
   height="256"
   fill="none"
   viewBox="0 0 256 256"
   version="1.1"
   id="svg4"
   sodipodi:docname="React-Dark.svg"
   inkscape:export-filename="Git-Dark.svg"
   inkscape:export-xdpi="96"
   inkscape:export-ydpi="96"
   xml:space="preserve"
   xmlns:inkscape="http://www.inkscape.org/namespaces/inkscape"
   xmlns:sodipodi="http://sodipodi.sourceforge.net/DTD/sodipodi-0.dtd"
   xmlns="http://www.w3.org/2000/svg"
   xmlns:svg="http://www.w3.org/2000/svg"><defs
     id="defs4"><clipPath
       id="clip0_7_283"><rect
         width="200"
         height="200"
         fill="#ffffff"
         transform="translate(28,28)"
         id="rect2"
         x="0"
         y="0" /></clipPath></defs><sodipodi:namedview
     id="namedview4"
     pagecolor="#ffffff"
     bordercolor="#000000"
     borderopacity="0.25"
     inkscape:showpageshadow="2"
     inkscape:pageopacity="0.0"
     inkscape:pagecheckerboard="0"
     inkscape:deskcolor="#d1d1d1"
     inkscape:export-bgcolor="#ffffff00" /><rect
     width="256"
     height="256"
     fill="#242938"
     rx="60"
     id="rect1"
     x="0.61244017"
     y="0" /><g
     style="fill:none"
     id="g6"
     transform="translate(272.8421,-0.91865989)"><rect
       width="256"
       height="256"
       fill="#f03c2e"
       rx="60"
       id="rect1-6"
       x="0"
       y="0" /><g
       clip-path="url(#clip0_7_283)"
       id="g1"
       transform="translate(-271.92344,-0.61244019)"
       style="fill:#f03c2e;fill-opacity:1"><path
         fill="#ffffff"
         d="M 224.225,119.094 136.906,31.775 c -1.195,-1.1963 -2.615,-2.1452 -4.177,-2.7926 -1.563,-0.6475 -3.238,-0.9807 -4.929,-0.9807 -1.691,0 -3.366,0.3332 -4.929,0.9807 -1.562,0.6474 -2.982,1.5963 -4.177,2.7926 l -18.125,18.125 23,23 c 5.35,-1.875 11.475,-0.5938 15.737,3.6687 2.029,2.0327 3.446,4.5951 4.088,7.3945 0.642,2.7994 0.484,5.723 -0.457,8.4368 l 22.169,22.169 c 5.363,-1.85 11.55,-0.657 15.831,3.637 1.424,1.424 2.553,3.114 3.323,4.974 0.77,1.86 1.166,3.853 1.166,5.866 -10e-4,2.013 -0.397,4.006 -1.168,5.866 -0.771,1.859 -1.9,3.549 -3.324,4.972 -1.423,1.424 -3.113,2.552 -4.973,3.322 -1.86,0.771 -3.853,1.167 -5.866,1.166 -2.013,0 -4.007,-0.397 -5.866,-1.167 -1.86,-0.771 -3.55,-1.9 -4.973,-3.324 -4.5,-4.5 -5.612,-11.125 -3.337,-16.669 l -20.675,-20.675 v 54.407 c 1.501,0.742 2.872,1.722 4.062,2.9 1.423,1.423 2.552,3.112 3.323,4.972 0.77,1.859 1.166,3.852 1.166,5.865 0,2.013 -0.396,4.006 -1.166,5.865 -0.771,1.86 -1.9,3.55 -3.323,4.973 -1.423,1.423 -3.113,2.552 -4.972,3.322 -1.86,0.77 -3.853,1.167 -5.865,1.167 -2.013,0 -4.006,-0.397 -5.865,-1.167 -1.86,-0.77 -3.55,-1.899 -4.973,-3.322 -1.425,-1.423 -2.555,-3.112 -3.326,-4.971 -0.772,-1.86 -1.169,-3.854 -1.169,-5.867 0,-2.013 0.397,-4.006 1.169,-5.866 0.771,-1.86 1.901,-3.549 3.326,-4.971 1.481,-1.475 3.125,-2.594 5.019,-3.344 v -54.913 c -1.825,-0.75 -3.538,-1.8558 -5.019,-3.3433 -2.152,-2.1494 -3.615,-4.8911 -4.203,-7.8753 -0.587,-2.9843 -0.273,-6.076 0.903,-8.8809 L 91.6437,58.8125 31.7687,118.625 c -1.1971,1.196 -2.1468,2.616 -2.7948,4.179 -0.648,1.563 -0.9815,3.238 -0.9815,4.93 0,1.692 0.3335,3.368 0.9815,4.931 0.648,1.563 1.5977,2.983 2.7948,4.179 l 87.3253,87.312 c 1.195,1.196 2.615,2.145 4.177,2.793 1.563,0.647 3.238,0.98 4.929,0.98 1.691,0 3.366,-0.333 4.929,-0.98 1.562,-0.648 2.982,-1.597 4.177,-2.793 l 86.919,-86.781 c 1.197,-1.196 2.147,-2.616 2.795,-4.179 0.648,-1.563 0.981,-3.238 0.981,-4.93 0,-1.692 -0.333,-3.368 -0.981,-4.931 -0.648,-1.563 -1.598,-2.983 -2.795,-4.179"
         id="path1"
         style="fill:#f03c2e;fill-opacity:1" /></g></g></svg>
