<?xml version="1.0" encoding="UTF-8" standalone="no"?>
<svg
   width="256"
   height="256"
   fill="none"
   viewBox="0 0 256 256"
   version="1.1"
   id="svg4"
   sodipodi:docname="React-Dark.svg"
   inkscape:export-filename="Javascript-Dark.svg"
   inkscape:export-xdpi="96"
   inkscape:export-ydpi="96"
   xml:space="preserve"
   xmlns:inkscape="http://www.inkscape.org/namespaces/inkscape"
   xmlns:sodipodi="http://sodipodi.sourceforge.net/DTD/sodipodi-0.dtd"
   xmlns="http://www.w3.org/2000/svg"
   xmlns:svg="http://www.w3.org/2000/svg"><defs
     id="defs4"><linearGradient
       id="paint0_linear_7_245"
       x1="0"
       y1="0"
       x2="256"
       y2="256"
       gradientUnits="userSpaceOnUse"><stop
         stop-color="#FF5C00"
         id="stop10" /><stop
         offset="1"
         stop-color="#FF0F00"
         id="stop11" /></linearGradient></defs><sodipodi:namedview
     id="namedview4"
     pagecolor="#ffffff"
     bordercolor="#000000"
     borderopacity="0.25"
     inkscape:showpageshadow="2"
     inkscape:pageopacity="0.0"
     inkscape:pagecheckerboard="0"
     inkscape:deskcolor="#d1d1d1"
     inkscape:export-bgcolor="#ffffff00" /><rect
     width="256"
     height="256"
     fill="#242938"
     rx="60"
     id="rect1"
     x="0.61244017"
     y="0" /><g
     style="fill:none"
     id="g5"
     transform="translate(-267.33014,0.91866069)"><rect
       width="256"
       height="256"
       rx="60"
       fill="url(#paint0_linear_7_245)"
       id="rect1-2"
       x="0"
       y="0"
       style="fill:url(#paint0_linear_7_245)" /><path
       d="m 347.4871,69.35324 c -9.9859,14.6168 -8.7421,33.6322 -1.1341,49.1452 l 0.5595,1.105 0.378,0.7 c 0.07,0.136 0.1512,0.27 0.2231,0.402 0.1323,0.246 0.2646,0.482 0.378,0.724 l 0.7277,1.272 0.4159,0.7 0.8449,1.346 0.378,0.567 c 0.3781,0.605 0.8052,1.206 1.2249,1.799 0.009,0.015 0.0226,0.032 0.034,0.047 0.0661,0.095 0.1399,0.189 0.189,0.284 0.3629,0.51 0.7561,1.013 1.1341,1.512 l 0.4196,0.544 1.0302,1.29 0.3932,0.48 c 0.4685,0.565 0.9474,1.123 1.4365,1.671 l 0.0302,0.03 c 0.0189,0.024 0.0378,0.038 0.0567,0.062 0.4739,0.535 0.9604,1.058 1.4593,1.569 l 0.4687,0.48 1.1663,1.165 0.4763,0.461 c 0.5241,0.502 1.0566,0.995 1.5972,1.48 l 0.3024,0.264 1.4498,1.248 0.6011,0.488 1.2097,0.945 0.6465,0.501 1.8486,1.351 c 0.0472,0.032 0.0888,0.066 0.1361,0.098 0.4347,0.303 0.8753,0.596 1.3173,0.889 l 0.571,0.387 2.064,1.286 0.571,0.327 1.55,0.884 c 0.283,0.155 0.573,0.303 0.856,0.45 l 1.108,0.567 0.255,0.125 0.454,0.223 1.757,0.828 0.373,0.189 c 0.678,0.301 1.361,0.59 2.049,0.867 l 0.499,0.201 1.933,0.729 0.242,0.087 c 0.714,0.252 1.433,0.492 2.155,0.719 l 0.52,0.158 c 0.756,0.227 1.465,0.498 2.225,0.643 48.29,8.99 62.321,-29.536 62.321,-29.536 -11.781,15.632 -32.693,19.752 -52.505,15.165 -0.751,-0.189 -1.479,-0.41 -2.212,-0.631 l -0.552,-0.189 c -0.714,-0.223 -1.425,-0.46 -2.128,-0.705 l -0.293,-0.108 c -0.629,-0.227 -1.255,-0.463 -1.877,-0.709 l -0.529,-0.212 c -0.681,-0.273 -1.357,-0.559 -2.027,-0.858 l -0.404,-0.181 -1.709,-0.813 -0.491,-0.242 c -0.444,-0.223 -0.885,-0.452 -1.324,-0.686 l -0.882,-0.473 c -0.534,-0.292 -1.062,-0.594 -1.584,-0.905 l -0.535,-0.303 c -0.696,-0.415 -1.384,-0.85 -2.064,-1.285 -0.189,-0.123 -0.371,-0.253 -0.558,-0.378 l -1.469,-0.994 -0.472,-0.34 -1.389,-1.021 -0.617,-0.473 -1.253,-0.998 -0.559,-0.453 -1.56,-1.323 c -0.053,-0.048 -0.113,-0.095 -0.189,-0.146 -0.555,-0.497 -1.102,-1.007 -1.64,-1.52 l -0.462,-0.453 -1.1791,-1.176 -0.4612,-0.473 c -0.4913,-0.51 -0.9733,-1.029 -1.446,-1.557 -0.0227,-0.027 -0.0491,-0.051 -0.0718,-0.076 -0.4996,-0.557 -0.9886,-1.125 -1.4668,-1.701 l -0.3837,-0.465 -1.0585,-1.329 -0.3875,-0.491 -1.2192,-1.654 c -11.0009,-15.2822 -14.9325,-36.3578 -6.162,-53.6681 z m 30.9987,-12.3164 c -7.22,10.585 -6.829,24.7501 -1.196,35.9438 0.942,1.8795 2.009,3.6938 3.194,5.4305 1.082,1.5783 2.282,3.4593 3.718,4.7253 0.52,0.567 1.064,1.134 1.62,1.713 0.14,0.145 0.284,0.283 0.427,0.429 0.54,0.535 1.092,1.058 1.656,1.567 0.023,0.019 0.044,0.041 0.068,0.06 0.636,0.565 1.285,1.113 1.949,1.645 l 0.439,0.347 c 0.66,0.52 1.335,1.021 2.022,1.505 0.018,0.015 0.037,0.03 0.057,0.044 0.302,0.213 0.614,0.415 0.922,0.619 0.148,0.099 0.287,0.203 0.435,0.295 0.493,0.323 0.993,0.635 1.499,0.936 l 0.212,0.125 1.323,0.756 c 0.155,0.089 0.313,0.166 0.472,0.249 l 0.945,0.488 c 0.048,0.025 0.095,0.043 0.14,0.066 0.637,0.321 1.278,0.624 1.934,0.917 0.14,0.062 0.283,0.119 0.427,0.179 0.524,0.227 1.053,0.447 1.588,0.656 l 0.68,0.254 c 0.483,0.179 0.968,0.351 1.456,0.516 l 0.657,0.213 c 0.694,0.221 1.38,0.497 2.104,0.62 37.284,6.291 45.894,-22.9466 45.894,-22.9466 -7.759,11.3786 -22.784,16.8116 -38.821,12.5736 -0.709,-0.189 -1.413,-0.397 -2.111,-0.624 -0.214,-0.066 -0.423,-0.136 -0.635,-0.189 -0.495,-0.163 -0.987,-0.336 -1.476,-0.518 l -0.668,-0.253 c -0.535,-0.189 -1.064,-0.425 -1.587,-0.652 -0.144,-0.063 -0.288,-0.119 -0.429,-0.185 -0.658,-0.288 -1.307,-0.595 -1.947,-0.921 -0.329,-0.164 -0.652,-0.336 -0.976,-0.507 l -0.563,-0.294 c -0.416,-0.229 -0.827,-0.465 -1.234,-0.709 l -0.295,-0.189 c -0.503,-0.301 -1.001,-0.611 -1.493,-0.93 -0.152,-0.099 -0.299,-0.189 -0.45,-0.306 l -0.968,-0.6525 c -0.684,-0.484 -1.355,-0.9844 -2.015,-1.5009 l -0.454,-0.3629 c -7.018,-5.6441 -12.583,-13.356 -15.227,-22.1019 -2.773,-9.0729 -2.174,-19.2516 2.646,-27.5136 z m 26.066,-9.2015 c -4.257,6.3813 -4.674,14.305 -1.701,21.3516 3.115,7.4795 9.498,13.3485 16.947,16.129 0.307,0.1171 0.615,0.2211 0.945,0.327 l 0.409,0.1323 c 0.438,0.1398 0.875,0.3024 1.327,0.3893 20.588,4.0507 26.171,-10.7589 27.657,-12.9383 -4.892,7.1733 -13.112,8.8952 -23.198,6.4021 -0.794,-0.1985 -1.673,-0.4915 -2.458,-0.7674 -0.987,-0.3572 -1.954,-0.7666 -2.897,-1.2268 -1.795,-0.8802 -3.497,-1.9383 -5.081,-3.1585 -9.045,-6.9748 -14.653,-20.2779 -8.763,-31.1125"
       fill="#ffffff"
       id="path1-7"
       style="fill:#ff2e00;fill-opacity:1" /><path
       d="m 90.8364,182.681 -1.3949,4.945 1.3949,-4.943 z m 7.1752,10.733 -1.5367,-0.01 z m -0.378,7.383 -9.209,0.034 z m 1.9279,-7.372 -1.5386,-0.009 z m -1.1,6.744 1.6065,-6.118 z m 33.8915,-28.177 -2.987,14.05 z m -7.684,0 -2.268,10.497 z"
       fill="#ffffff"
       id="path2-3" /><path
       d="m 400.0718,171.97144 h -6.389 c -0.355,0 -0.707,0.284 -0.782,0.631 l -4.537,20.995 c -0.075,0.346 -0.427,0.629 -0.78,0.629 h -4.523 c -4.476,0 -3.958,-3.094 -3.025,-7.334 l 0.029,-0.128 0.542,-2.892 0.234,-1.191 2.065,-10.079 c 0.071,-0.347 -0.161,-0.633 -0.516,-0.633 h -6.559 c -0.181,0.006 -0.355,0.071 -0.496,0.185 -0.14,0.114 -0.24,0.271 -0.283,0.446 l -2.955,14.014 c -1.625,7.417 -1.194,14.491 7.637,14.712 l 0.255,0.005 h 13.859 c 0.355,0 0.705,-0.283 0.781,-0.631 l 5.976,-28.1 c 0.076,-0.347 -0.157,-0.631 -0.51,-0.631 z m 25.493,22.329 c 0.356,0 0.567,0.283 0.516,0.631 l -0.62,3.034 z m -0.724,6.701 0.62,-3.036 z m -0.778,0.638 -11.776,0.057 z"
       fill="#ffffff"
       id="path3"
       style="fill:#ff2e00;fill-opacity:1" /><path
       d="m 140.223,189.783 c -0.005,-0.333 0.373,-0.904 0.728,-0.904 l -0.798,-0.013 c -0.378,3.618 0.07,0.917 0.07,0.917 z m 4.397,11.299 h -0.123 z m 12.696,-7.394 c 0.356,0 0.567,0.283 0.516,0.631 l -0.722,3.527 z m -9.672,7.404 h -0.026 z m -1.569,-0.012 h -0.09 z m -0.478,0.002 h -0.151 z m -0.467,0 h -0.132 z m 0.873,-0.002 h -0.387 z"
       fill="#ffffff"
       id="path4" /><path
       d="m 415.8688,201.70444 -1.543,0.005 z m 8.197,-0.048 -8.175,0.05 z m 0.756,-0.655 0.52,-2.541 -0.52,2.542 z m -11.144,0.693 h -0.299 0.337 z m -0.936,0 h -0.453 z m 0.486,0 h -0.378 z m -93.4887,-11.224 0.9924,-4.4 -1.1341,5.028 -0.1323,0.631 0.2759,-1.262 z m 11.8818,-18.571 h -7.0183 c -0.1814,0.007 -0.3557,0.072 -0.4975,0.186 -0.1418,0.113 -0.2437,0.268 -0.2907,0.444 l -1.3307,5.859 c -0.0224,0.076 -0.0261,0.156 -0.0109,0.234 0.0152,0.077 0.0489,0.15 0.0983,0.212 0.0493,0.062 0.1129,0.111 0.1852,0.143 0.0723,0.032 0.1513,0.046 0.2302,0.041 h 7.0731 c 0.3553,0 0.7069,-0.284 0.7825,-0.63 l 1.2853,-5.873 c 0.0756,-0.345 -0.1512,-0.629 -0.5103,-0.629 z m -1.5273,9.769 -2.0792,9.523 z m -20.3876,31.556 5.7878,0.046 c -1.7088,0 -4.5308,-0.032 -5.7897,-0.047 z"
       fill="#ffffff"
       id="path5"
       style="fill:#ff2e00;fill-opacity:1" /><path
       d="m 321.7049,181.66844 -0.9942,4.4 z m 7.8821,-0.63 h -7.075 c -0.1813,0.007 -0.3556,0.072 -0.4975,0.186 -0.1418,0.113 -0.2436,0.268 -0.2907,0.444 l -1.9847,8.8 -0.276,1.263 -1.8901,8.984 c -0.0937,0.419 -0.2072,0.834 -0.3403,1.242 0,0 -1.3231,3.932 -3.5422,3.888 l -2.2021,-0.041 c -0.1806,0.005 -0.3549,0.067 -0.4976,0.178 -0.1428,0.111 -0.2465,0.264 -0.2962,0.438 l -1.4649,6.167 c -0.0232,0.076 -0.0278,0.156 -0.0136,0.233 0.0142,0.078 0.0469,0.151 0.0953,0.213 0.0483,0.062 0.111,0.112 0.1827,0.145 0.0716,0.033 0.1501,0.048 0.2289,0.045 l 5.7896,0.047 c 5.5496,0 8.4738,-3.076 10.3507,-11.922 l 4.2529,-19.658 c 0.0756,-0.345 -0.155,-0.629 -0.5103,-0.629 z m 100.4858,20.297 c -0.355,0 -0.567,-0.283 -0.51,-0.631 l 5.321,-24.924 z m 7.395,-0.633 2.155,-10.638 z"
       fill="#ffffff"
       id="path6"
       style="fill:#ff2e00;fill-opacity:1" /><path
       d="m 161.391,200.408 c -0.043,-0.174 -0.018,-0.6 0.057,-0.946 l 2.525,-11.832 -2.661,12.462 c -0.076,0.348 0.155,0.631 0.51,0.631 h 0.647 c -0.355,0 -1.036,-0.142 -1.078,-0.315 z m 7.41,0.173 c -0.193,0.076 -0.643,0.142 -0.998,0.142 h 0.646 c 0.181,-0.007 0.354,-0.073 0.494,-0.187 0.14,-0.114 0.238,-0.271 0.281,-0.446 l 0.129,-0.631 c -0.07,0.347 -0.378,1.045 -0.567,1.122 z m 1.493,-5.81 0.951,-4.695 z m 20.996,-17.934 0.293,1.21 c 0.082,0.346 -0.143,0.627 -0.497,0.629"
       fill="#ffffff"
       id="path7" /><path
       d="m 169.347,199.459 0.945,-4.688 z m 21.654,-23.885 0.289,1.24 z m -19.756,14.502 0.261,-1.255 1.015,-4.754 -1.149,5.383 -0.127,0.624 z m -4.523,-15.318 -0.221,1.039 -2.526,11.833 2.662,-12.462 0.085,-0.408 z"
       fill="#ffffff"
       id="path8" /><path
       d="m 459.8338,178.65944 -0.293,-1.21 -0.434,-1.89 c -0.575,-2.231 -2.261,-3.522 -5.924,-3.522 l -16.861,-0.011 c -0.181,0.006 -0.354,0.071 -0.495,0.185 -0.14,0.114 -0.24,0.271 -0.283,0.446 l -0.261,1.235 -0.378,1.865 -5.187,24.295 c -0.076,0.348 -0.1,0.756 -0.057,0.945 0.044,0.189 0.724,0.316 1.078,0.316 h 5.33 c 0.355,0 0.803,-0.065 0.998,-0.142 0.195,-0.078 0.48,-0.756 0.567,-1.123 l 2.023,-10.007 2.164,-10.139 c 0.075,-0.346 0.425,-0.627 0.779,-0.629 l 16.771,-0.008 c 0.354,0 0.579,-0.283 0.497,-0.629 z m 21.592,-10.95 -1.291,0.005 h -5.368 c -0.197,0.012 -0.388,0.066 -0.563,0.158 -0.174,0.092 -0.326,0.22 -0.447,0.375 l -11.87,17.39 c -0.2,0.293 -0.429,0.25 -0.51,-0.094 l -0.874,-3.832 c -0.047,-0.175 -0.148,-0.331 -0.29,-0.444 -0.142,-0.113 -0.316,-0.178 -0.498,-0.185 h -7.63 c -0.356,0 -0.567,0.278 -0.469,0.62 l 3.402,11.98 c 0.098,0.34 0.104,0.901 0.019,1.247 l -1.512,5.798 c -0.026,0.074 -0.033,0.153 -0.02,0.231 0.013,0.078 0.045,0.151 0.093,0.213 0.048,0.062 0.111,0.111 0.183,0.143 0.072,0.032 0.151,0.045 0.23,0.038 h 7.56 c 0.356,0 0.719,-0.283 0.806,-0.624 l 1.512,-5.797 c 0.118,-0.408 0.304,-0.794 0.548,-1.141 l 19.291,-25.58 c 0.214,-0.284 0.099,-0.514 -0.257,-0.511 l -2.022,0.014 z m -60.63,15.002 c -0.045,0.378 -0.4,0.662 -0.756,0.662 h -9.678 c -0.334,0 -0.504,-0.227 -0.453,-0.511 l 0.007,-0.051 0.044,-0.164 c 0.945,-2.457 2.807,-4.07 6.343,-4.07 3.983,0 4.76,1.947 4.49,4.134 z m -2.839,-11.167 c -12.418,0 -15.361,7.538 -17.011,15.146 -1.652,7.755 -1.509,15.008 11.341,15.008 h 2.037 l 1.569,-0.006 8.177,-0.049 c 0.18,-0.008 0.351,-0.074 0.49,-0.188 0.139,-0.114 0.237,-0.27 0.279,-0.445 l 1.242,-6.071 c 0.072,-0.348 -0.16,-0.632 -0.516,-0.632 h -11.553 c -4.593,0 -5.959,-1.221 -5.457,-4.81 h 18.468 c 0.302,-0.006 0.576,-0.189 0.684,-0.476 0.019,-0.051 0.038,-0.106 0.045,-0.161 2.741,-10.339 1.955,-17.308 -9.791,-17.308 z m -58.6977,11.126 -0.1739,0.618 c 0,0.002 -1.3949,4.944 -1.3949,4.944 l -1.395,4.941 c -0.0579,0.175 -0.1674,0.327 -0.3138,0.438 -0.1465,0.11 -0.3231,0.174 -0.5065,0.182 h -7.3831 c -5.5987,0 -6.9616,-4.379 -5.5987,-10.838 1.3609,-6.606 4.0355,-10.714 9.5454,-11.129 7.5305,-0.567 9.0351,4.729 7.2205,10.842 z m 5.062,10.745 c 0,0 3.4779,-8.449 4.2717,-13.331 1.077,-6.535 -2.1925,-16.01 -14.8284,-16.01 -12.5641,0 -18.0192,9.046 -20.1003,18.902 -2.0792,9.904 0.6464,18.592 13.1368,18.524 l 19.0644,-0.07 c 0.1828,-0.009 0.3584,-0.074 0.5029,-0.186 0.1445,-0.113 0.2507,-0.267 0.3042,-0.442 l 1.6064,-6.12 c 0.026,-0.074 0.033,-0.154 0.021,-0.231 -0.012,-0.078 -0.044,-0.151 -0.0919,-0.213 -0.0478,-0.063 -0.1104,-0.112 -0.1822,-0.144 -0.0717,-0.032 -0.1503,-0.046 -0.2286,-0.04 l -3.0753,-0.019 c -0.3025,-0.002 -0.4726,-0.196 -0.4385,-0.453 0.007,-0.048 0.0189,-0.095 0.0378,-0.144 z"
       fill="#ffffff"
       id="path9"
       style="fill:#ff2e00;fill-opacity:1" /><path
       d="m 158.267,187.15 c 0,0.234 -0.189,0.423 -0.423,0.423 -0.235,0 -0.424,-0.189 -0.424,-0.423 0,-0.235 0.189,-0.424 0.424,-0.424 0.234,0 0.423,0.189 0.423,0.424 z"
       fill="#ffffff"
       id="path10" /></g></svg>
