<?xml version="1.0" encoding="UTF-8" standalone="no"?>
<svg
   width="256"
   height="256"
   fill="none"
   viewBox="0 0 256 256"
   version="1.1"
   id="svg4"
   sodipodi:docname="React-Dark.svg"
   inkscape:export-filename="Git-Dark.svg"
   inkscape:export-xdpi="96"
   inkscape:export-ydpi="96"
   xml:space="preserve"
   xmlns:inkscape="http://www.inkscape.org/namespaces/inkscape"
   xmlns:sodipodi="http://sodipodi.sourceforge.net/DTD/sodipodi-0.dtd"
   xmlns="http://www.w3.org/2000/svg"
   xmlns:svg="http://www.w3.org/2000/svg"><defs
     id="defs4" /><sodipodi:namedview
     id="namedview4"
     pagecolor="#ffffff"
     bordercolor="#000000"
     borderopacity="0.25"
     inkscape:showpageshadow="2"
     inkscape:pageopacity="0.0"
     inkscape:pagecheckerboard="0"
     inkscape:deskcolor="#d1d1d1"
     inkscape:export-bgcolor="#ffffff00" /><rect
     width="256"
     height="256"
     fill="#242938"
     rx="60"
     id="rect1"
     x="0.61244017"
     y="0" /><g
     style="fill:none"
     id="g6"
     transform="translate(272.8421,-0.91865989)"><g
       id="g7"
       transform="matrix(0.76407573,0,0,1.1098276,-495.99835,28.078045)"><path
         d="m 581.38982,1.1746159 c -3.95,0.127 -2.701,1.265 -11.236,3.365 -8.619,2.121 -19.147,1.47 -28.428,5.363 -27.706,11.6200001 -33.265,51.3330001 -58.452,65.5590001 -18.827,10.634 -37.822,11.482 -54.899,16.834 -11.223,3.519 -23.5,10.736004 -33.668,19.499004 -7.892,6.803 -8.098,12.786 -16.345,21.32 -8.82,9.127 -35.057,0.154 -46.948,14.124 3.83,3.873 5.51,4.958 13.058,3.953 -1.562,2.962 -10.775,5.458 -8.972,9.816 1.898,4.585 24.17,7.693 44.417,-4.53 9.429,-5.693 16.94,-13.899 31.624,-15.857 19.003,-2.533 40.895,1.624 62.894,4.797 -3.262,9.726 -9.811,16.194 -15.057,23.94 -1.625,1.75 3.263,1.946 8.839,0.889 10.03,-2.48 17.258,-4.478 24.828,-8.884 9.3,-5.414 10.71,-19.293 22.12,-22.297 6.357,9.772 23.649,12.08 34.378,4.264 -9.415,-2.665 -12.017,-22.705 -8.839,-31.535 3.01,-8.36 5.985,-21.730004 9.017,-32.780004 3.255,-11.866 4.455,-26.823 8.394,-32.868 5.927,-9.094 12.475,-12.217 18.16,-17.345 5.686,-5.129 10.89,-10.12 10.719,-21.8550001 -0.055,-3.78 -2.01,-5.886 -5.604,-5.772 z"
         fill="#002b64"
         id="path1-2"
         style="fill:#ffffff" /><path
         d="m 339.59182,160.17062 c 14.418,2.066 23.186,0 34.764,-5.02 9.852,-4.273 19.366,-13.081 31,-16.815 17.085,-5.482 35.821,0.007 54.085,1.102 4.448,0.267 8.867,0.27 13.229,-0.205 6.803,-4.182 6.663,-19.823 13.285,-21.256 -0.195,21.945 -9.192,35.094 -18.601,47.826 19.83,-3.502 31.697,-14.972 39.712,-30.291 2.432,-4.645 4.508,-9.642 6.344,-14.88 2.839,2.179 1.23,8.808 2.657,12.4 13.659,-7.609 21.48,-24.973 26.66,-42.535004 5.992,-20.325 8.445,-40.906 12.31,-46.92 3.772,-5.87 9.642,-9.488 15,-13.246 6.09,-4.273 11.52,-8.726 12.458,-16.867 -6.421,-0.594 -7.906,-2.08 -8.856,-5.3160001 -3.215,1.812 -6.171,2.2000001 -9.511,2.3000001 -2.898,0.088 -6.082,-0.041 -9.971,0.358 -32.16,3.303 -36.247,38.75 -56.86,58.844 a 48.347,48.347 0 0 1 -4.835,4.104 c -7.22,5.38 -16.076,9.224 -24.22,12.337 -13.183,5.037 -25.716,5.395 -38.084,9.743 -9.08,3.191 -18.306,7.820004 -25.763,12.924004 a 76.37,76.37 0 0 0 -5.238,3.903 c -4.376,3.58 -7.249,7.553 -10.027,11.64 -2.866,4.21 -5.633,8.543 -9.851,12.682 -6.834,6.71 -32.37,1.957 -41.36,8.18 -1.002,0.692 -1.798,1.523 -2.34,2.521 4.906,2.229 8.182,0.861 13.825,1.485 0.74,5.355 -11.642,8.537 -9.812,11.003 z m 194.841,-38.574 c 0.384,6.143 3.95,18.33 7.098,21.293 -6.166,1.5 -16.787,-0.978 -19.512,-5.327 1.4,-6.28 8.686,-12.02 12.414,-15.966 z"
         fill="#ffffff"
         id="path2"
         style="fill:#242938;fill-opacity:1" /><path
         d="m 543.46582,24.105616 c 4.552,3.952 14.105,0.78 12.398,-7.084 -7.074,-0.586 -11.172,1.815 -12.398,7.084 z m 31.739,-9.191 c -1.21,2.54 -3.529,5.815 -3.529,12.28 -0.01,1.11 -0.843,1.871 -0.857,0.16 0.063,-6.32 1.735,-9.051 3.512,-12.641 0.826,-1.471 1.323,-0.864 0.874,0.201 z"
         fill="#002b64"
         id="path3"
         style="fill:#ffffff" /><path
         d="m 573.98582,13.958616 c -1.429,2.423 -4.868,6.844 -5.437,13.285 -0.105,1.104 -1.003,1.788 -0.867,0.081 0.62,-6.288 3.369,-10.224 5.455,-13.645 0.947,-1.391 1.392,-0.743 0.849,0.279 z m -1.112,-1.268 c -1.627,2.294 -6.922,7.603 -8.029,13.975 -0.199,1.09 -1.151,1.698 -0.871,0.008 1.146,-6.215 5.71,-11.1 8.076,-14.331 1.06,-1.31 1.448,-0.625 0.824,0.348 z m -0.992,-1.414 c -1.933,2.042 -8.245,8.812 -10.235,14.964 -0.352,1.051 -1.38,1.52 -0.864,-0.114 2.007,-5.992 7.535,-12.447 10.332,-15.312 1.235,-1.1470001 1.522,-0.415 0.767,0.462 z"
         fill="#002b64"
         id="path4"
         style="fill:#ffffff" /></g></g></svg>
