<?xml version="1.0" encoding="UTF-8" standalone="no"?>
<svg
   width="256"
   height="256"
   fill="none"
   viewBox="0 0 256 256"
   version="1.1"
   id="svg4"
   sodipodi:docname="React-Dark.svg"
   inkscape:export-filename="MariaDB-Dark.svg"
   inkscape:export-xdpi="96"
   inkscape:export-ydpi="96"
   xml:space="preserve"
   xmlns:inkscape="http://www.inkscape.org/namespaces/inkscape"
   xmlns:sodipodi="http://sodipodi.sourceforge.net/DTD/sodipodi-0.dtd"
   xmlns="http://www.w3.org/2000/svg"
   xmlns:svg="http://www.w3.org/2000/svg"><defs
     id="defs4" /><sodipodi:namedview
     id="namedview4"
     pagecolor="#ffffff"
     bordercolor="#000000"
     borderopacity="0.25"
     inkscape:showpageshadow="2"
     inkscape:pageopacity="0.0"
     inkscape:pagecheckerboard="0"
     inkscape:deskcolor="#d1d1d1"
     inkscape:export-bgcolor="#ffffff00" /><rect
     width="256"
     height="256"
     fill="#242938"
     rx="60"
     id="rect1"
     x="0.61244017"
     y="0" /><g
     fill="#000e9c"
     id="g2"
     transform="matrix(1.8965339,0,0,1.8965339,338.38074,28.97668)"><path
       d="m -72.310391,15.271432 a 40.747547,40.747547 0 0 1 -3.800395,45.20844 h -21.786216 l 6.70658,-11.858451 h -8.870978 l 10.456167,-18.42277 h 8.921785 l 8.373057,-14.906895 z m -43.023719,45.20844 h -22.213 a 40.229311,40.229311 0 0 1 -3.85121,-45.310055 l 14.409,25.027734 15.88239,-27.659558 h 23.371414 l -27.588424,47.921555 z"
       fill-rule="evenodd"
       id="path1"
       style="fill:#ffffff;stroke-width:1.01615" /><path
       d="m -170.92799,79.644321 c 0,-7.419123 3.69483,-10.984309 9.76449,-10.984309 6.06965,0 9.75859,3.565186 9.75859,10.984309 0,7.419123 -3.7184,10.943063 -9.75859,10.943063 -6.0402,0 -9.76449,-3.594655 -9.76449,-10.943063 z m 2.19215,0 c 0,6.09912 2.78143,9.004305 7.57234,9.004305 4.7909,0 7.56644,-2.905185 7.56644,-9.004305 0,-6.09912 -2.78143,-9.045555 -7.56644,-9.045555 -4.78502,0 -7.57234,2.911078 -7.57234,9.045555 z m 33.28293,-10.106272 a 1.0725023,1.0725023 0 0 1 1.00178,-0.689465 1.0548237,1.0548237 0 0 1 1.06072,1.066609 1.4260745,1.4260745 0 0 1 -0.0943,0.465536 l -7.31894,19.299149 a 1.0489308,1.0489308 0 0 1 -1.99768,0 l -7.31895,-19.299149 a 1.4260745,1.4260745 0 0 1 -0.0943,-0.465536 1.0548237,1.0548237 0 0 1 1.06071,-1.066609 1.0725023,1.0725023 0 0 1 1.00179,0.689465 l 6.34662,16.830036 z m 6.50573,10.789845 v 9.010197 a 1.0666094,1.0666094 0 1 1 -2.12733,0 v -19.44647 a 1.0666094,1.0666094 0 1 1 2.12733,0 v 8.497519 h 10.89002 v -8.473947 a 1.0666094,1.0666094 0 1 1 2.12733,0 v 19.44647 a 1.0666094,1.0666094 0 1 1 -2.12733,0 v -9.033769 z m 23.05879,-4.814475 a 5.8928698,5.8928698 0 0 1 4.81448,2.15679 0.91928768,0.91928768 0 0 1 0.21804,0.589288 0.88982332,0.88982332 0 0 1 -0.9075,0.907502 0.91928768,0.91928768 0 0 1 -0.7484,-0.377144 4.0071515,4.0071515 0 0 0 -3.37662,-1.443753 c -2.88161,0 -4.41375,1.844468 -4.41375,5.692512 0,3.848044 1.53214,5.721977 4.41375,5.721977 a 5.7042979,5.7042979 0 0 0 3.62412,-1.343575 0.91928768,0.91928768 0 0 1 0.58929,-0.218036 0.90750198,0.90750198 0 0 1 0.9075,0.907502 0.9605378,0.9605378 0 0 1 -0.4066,0.777859 7.106801,7.106801 0 0 1 -4.71431,1.691253 c -4.03661,0 -6.44679,-2.410184 -6.44679,-7.53698 0,-5.126797 2.41018,-7.525195 6.44679,-7.525195 z m 9.976636,-6.635371 v 17.896645 c 0,1.249289 0.406605,1.767861 1.24929,1.767861 a 0.94285914,0.94285914 0 1 1 0,1.879826 c -2.091975,0 -3.252865,-1.255181 -3.252865,-3.659472 v -17.88486 a 1.0253593,1.0253593 0 0 1 1.001784,-0.995895 1.0017878,1.0017878 0 0 1 1.001791,0.995895 z m 17.048072,14.142888 c 0,5.126796 -2.504471,7.536978 -6.570552,7.536978 -4.066081,0 -6.564654,-2.410182 -6.564654,-7.536978 0,-5.126797 2.533933,-7.507517 6.564654,-7.507517 4.030721,0 6.570552,2.374827 6.570552,7.507517 z m -2.033044,0 c 0,-3.942331 -1.655894,-5.692513 -4.537508,-5.692513 -2.881613,0 -4.531617,1.767861 -4.531617,5.692513 0,3.924651 1.655895,5.721976 4.531617,5.721976 2.875723,0 4.561079,-1.720718 4.561079,-5.721976 z m 6.853411,-6.317157 v 8.161624 c 0,2.03304 0.65411,3.783223 3.812684,3.783223 3.158581,0 3.818583,-1.767861 3.818583,-3.783223 v -8.161624 a 1.0135736,1.0135736 0 0 1 1.031253,-1.001788 0.98410927,0.98410927 0 0 1 0.972322,1.001788 v 8.161624 c 0,2.946436 -0.972322,5.692511 -5.822158,5.692511 -4.849828,0 -5.816259,-2.722504 -5.816259,-5.692511 v -8.161624 a 0.98410927,0.98410927 0 0 1 1.001783,-1.001788 1.0076807,1.0076807 0 0 1 1.001792,1.001788 z m 22.988084,0.84268 v -8.668411 a 1.001788,1.001788 0 0 1 2.003576,0 v 15.539498 c 0,4.125008 -2.563402,6.163939 -6.128588,6.163939 -4.036612,0 -6.41733,-2.410181 -6.41733,-7.536978 0,-5.126797 2.256965,-7.507517 6.287686,-7.507517 a 5.3035828,5.3035828 0 0 1 4.254656,2.009469 z m 0,2.533934 c 0,0 -1.178577,-2.75197 -4.125012,-2.75197 -2.946435,0 -4.413755,1.844468 -4.413755,5.692513 0,3.848043 1.532142,5.721976 4.413755,5.721976 2.404296,0 4.125012,-1.373039 4.125012,-4.348938 z"
       id="path2"
       style="fill:#ffffff;stroke-width:0.589287" /></g></svg>
